PathFileType	3	(X/Y/Z)	D:\Vicon Setup\UG\Test1\New Session\NewSession13.trc
DataRate	CameraRate	NumFrames	NumMarkers	Units	OrigDataRate	OrigDataStartFrame	OrigNumFrames
100.0	100.0	13	27	mm	100.0	538	333	
Frame#	Time	Sternum			LShoulder			RShoulder			LASIS			RASIS			RPSIS			LPSIS			RKneeLateral			RKneeMedial			RFibulaHead			RMidShank			RAnkleLateral			RAnkleMedial			RHeel			RMT5			RMT2			RToe			LKneeLateral			LKneeMedial			LFibulaHead			LMidShank			LAnkleLateral			LAnkleMedial			LHeel			LMT5			LMT2			LToe			
		X1	Y1	Z1	X2	Y2	Z2	X3	Y3	Z3	X4	Y4	Z4	X5	Y5	Z5	X6	Y6	Z6	X7	Y7	Z7	X8	Y8	Z8	X9	Y9	Z9	X10	Y10	Z10	X11	Y11	Z11	X12	Y12	Z12	X13	Y13	Z13	X14	Y14	Z14	X15	Y15	Z15	X16	Y16	Z16	X17	Y17	Z17	X18	Y18	Z18	X19	Y19	Z19	X20	Y20	Z20	X21	Y21	Z21	X22	Y22	Z22	X23	Y23	Z23	X24	Y24	Z24	X25	Y25	Z25	X26	Y26	Z26	X27	Y27	Z27	
538	5.37	-230.65939	1379.6084	-1562.5032	-34.547588	1443.2137	-1644.5073	-403.16025	1426.6359	-1659.5751	-108.49905	1001.1128	-1622.0063	-363.40878	1019.8635	-1634.0787	-290.73267	1033.0726	-1803.941	-160.48845	1033.5336	-1802.5106	-421.34906	563.47644	-1542.9221	-301.7627	552.47839	-1487.6284	-425.08356	483.53369	-1543.3157	-339.75458	321.74973	-1521.6128	-373.8891	126.38722	-1607.0615	-313.20428	154.05055	-1537.1589	-297.83313	107.19949	-1655.673	-448.61972	50.126537	-1481.3933	-387.4686	89.301323	-1458.0034	-398.931	81.02713	-1418.7418	-109.2342	525.08716	-1732.1656	-239.37396	513.7486	-1709.0616	-111.50153	465.03525	-1756.8381	-196.44089	310.32584	-1743.0723	-159.49239	114.20707	-1837.2297	-237.15396	131.32663	-1790.7153	-222.24329	93.267776	-1909.3275	-111.09332	40.237007	-1720.1514	-172.90643	58.044952	-1694.3064	-177.73315	43.451126	-1655.219
539	5.38	-230.744	1377.7941	-1548.6288	-34.87743	1442.2229	-1630.4447	-403.17117	1424.7461	-1645.649	-107.74779	999.68359	-1609.0897	-362.95322	1018.2396	-1620.3687	-290.93784	1031.74	-1790.4601	-160.82016	1032.6263	-1789.2584	-418.66296	561.17114	-1528.9368	-298.58673	550.79633	-1474.5101	-422.3338	480.55606	-1526.3914	-338.47095	319.64075	-1493.6737	-374.50717	118.51729	-1565.2408	-313.65323	150.63492	-1498.233	-299.23923	95.250603	-1612.7632	-449.2536	52.562801	-1434.0336	-387.91846	93.332283	-1413.7892	-399.28061	88.222183	-1374.2498	-109.1599	525.11212	-1726.1483	-239.69305	513.85895	-1703.9355	-111.4566	465.39481	-1751.7156	-196.41608	310.57904	-1739.9855	-159.14363	115.43141	-1836.3248	-237.02917	132.0537	-1789.6008	-221.98528	95.018616	-1908.5377	-111.01958	40.142387	-1719.948	-172.72926	57.979553	-1693.7415	-177.73969	43.293373	-1655.1207
540	5.39	-230.90181	1375.717	-1534.6791	-35.097099	1441.1735	-1616.1287	-403.24832	1422.5944	-1631.522	-107.48463	998.11713	-1595.6034	-362.71594	1016.2915	-1606.4705	-291.17801	1030.1691	-1776.8005	-161.16847	1031.4698	-1775.7802	-415.76443	558.19855	-1515.7595	-295.39191	548.32013	-1461.964	-419.49127	477.12073	-1510.2742	-337.35391	317.72723	-1466.3413	-375.28934	112.08656	-1523.1382	-313.82913	148.68999	-1459.3645	-300.96933	84.288536	-1569.9556	-449.88834	57.369839	-1387.0782	-388.01852	98.931526	-1370.5742	-399.12982	97.305	-1330.6488	-109.12625	525.09412	-1719.9777	-239.91142	513.86627	-1698.7737	-111.42649	465.76474	-1746.5222	-196.35777	310.71552	-1736.8679	-159.09013	116.63029	-1835.3398	-236.94167	132.82018	-1788.3182	-221.73843	96.746017	-1907.7386	-110.92098	40.080235	-1719.8154	-172.5405	58.016621	-1693.0781	-177.64891	43.193676	-1654.9194
541	5.4	-231.14085	1373.3198	-1520.6641	-35.185719	1439.9473	-1601.6689	-403.50186	1420.2438	-1617.2194	-106.7672	996.10071	-1582.8351	-362.62799	1014.0082	-1592.364	-291.44382	1028.3203	-1762.9019	-161.53777	1030.0309	-1762.0541	-412.44995	554.71613	-1503.3932	-291.90729	545.06665	-1449.7689	-416.23572	473.19489	-1494.8599	-336.33624	316.11935	-1439.7051	-376.12006	107.2273	-1481.626	-314.05933	147.96681	-1421.1091	-302.79761	75.257126	-1526.8779	-450.37436	64.125824	-1341.2148	-387.8588	105.79463	-1328.775	-398.66367	107.68043	-1288.5808	-109.04826	524.96997	-1713.7509	-240.29472	513.59528	-1693.7711	-111.34652	466.05518	-1741.1812	-196.24374	310.87558	-1733.6622	-159.01964	117.66536	-1834.3386	-236.70152	133.53052	-1787.1483	-221.42213	98.541557	-1906.8748	-110.83255	40.036068	-1719.6945	-172.80008	57.59494	-1693.0992	-177.61421	43.014771	-1654.985
542	5.41	-231.46022	1370.6975	-1506.5726	-35.510494	1438.4296	-1587.2466	-403.77341	1417.619	-1602.7458	-106.96185	994.13434	-1568.7688	-362.71091	1011.482	-1578.1162	-291.80798	1026.1926	-1748.7667	-161.96388	1028.3101	-1748.1696	-408.72119	550.64697	-1491.7023	-287.88052	541.16711	-1437.5693	-412.65219	469.10797	-1479.9268	-335.25839	315.16922	-1413.5908	-377.05344	103.88039	-1440.9004	-314.58759	148.4874	-1383.7544	-304.56311	68.09314	-1484.194	-450.70554	71.864433	-1297.0951	-387.80142	113.97953	-1288.5734	-398.23837	119.31013	-1248.5941	-108.92574	524.92108	-1707.5024	-240.36485	513.45111	-1687.5004	-111.28016	466.34274	-1735.7433	-196.09348	310.99255	-1730.464	-158.76765	118.89458	-1833.3674	-236.49341	134.27423	-1786.0026	-221.03796	100.40321	-1906.0065	-110.7123	39.969395	-1719.5784	-172.65845	57.339226	-1692.7867	-177.92931	42.67487	-1655.2274
543	5.42	-231.87851	1367.7402	-1492.4044	-36.241447	1436.5653	-1572.9006	-404.38046	1414.8092	-1588.1403	-107.21759	991.9129	-1554.8011	-363.00757	1008.7028	-1563.5837	-292.31702	1023.808	-1734.4286	-162.44519	1026.4951	-1734.3118	-404.77716	546.21362	-1480.6704	-283.38269	536.67035	-1425.2487	-408.8696	465.11975	-1465.0676	-333.89368	315.05765	-1388.2314	-377.84024	102.03805	-1401.8542	-315.198	150.34189	-1348.1844	-305.72485	62.795998	-1442.1957	-450.79199	80.841446	-1255.587	-387.8248	123.33818	-1250.7523	-397.96927	131.82941	-1211.2142	-108.77807	524.78522	-1701.0874	-239.91444	512.87109	-1680.9042	-111.14528	466.62228	-1730.2152	-195.81854	311.04343	-1727.2241	-158.3168	120.25337	-1832.4044	-235.75661	134.89908	-1784.4744	-220.63548	102.31116	-1905.105	-110.4706	40.026608	-1719.5199	-172.4814	57.100559	-1692.4667	-177.9165	42.538902	-1655.2969
544	5.43	-232.37535	1364.6484	-1478.1362	-37.023186	1434.5088	-1558.7076	-404.84464	1411.8735	-1573.5547	-107.53706	989.49304	-1540.7555	-363.43567	1005.7297	-1548.8154	-293.00336	1021.1523	-1719.9182	-163.16743	1024.2361	-1719.9326	-400.54248	541.78516	-1469.8037	-278.48007	531.9798	-1413.1199	-405.23932	461.62491	-1449.9756	-332.16766	315.57498	-1363.9364	-378.33234	102.0517	-1364.7048	-315.66589	152.92024	-1314.3317	-306.50531	59.619625	-1402.5648	-451.06903	90.600723	-1216.955	-387.82465	133.43056	-1215.4744	-397.95001	144.38367	-1176.5588	-108.60315	524.67725	-1694.5137	-239.76712	512.05652	-1674.228	-110.97622	466.86163	-1724.4365	-195.50235	311.19754	-1723.7983	-158.11717	121.56573	-1831.2476	-235.68405	135.75784	-1783.3237	-220.1075	104.31689	-1904.1256	-110.27314	39.936939	-1719.3959	-172.24702	56.7714	-1692.2064	-177.81601	42.463013	-1655.2948
545	5.44	-233.0042	1361.3964	-1463.8412	-37.83326	1432.3204	-1544.4427	-405.44388	1408.7607	-1558.9631	-107.91667	986.90588	-1526.6208	-363.88831	1002.5314	-1533.8018	-293.83069	1018.209	-1705.3228	-163.97879	1021.8959	-1705.8302	-396.68515	537.31195	-1458.6467	-273.39261	527.51898	-1401.412	-401.90826	458.97153	-1434.4177	-330.20178	316.5206	-1340.7273	-378.41147	103.05701	-1330.0721	-315.5155	156.3985	-1282.8638	-306.79169	58.15134	-1365.5269	-450.5874	100.27708	-1181.5922	-387.35571	142.47806	-1182.7484	-397.35147	156.29568	-1144.6254	-108.48791	524.44867	-1687.6062	-239.50288	511.31003	-1667.2214	-110.82146	467.04306	-1718.3278	-195.15099	311.11136	-1720.0551	-157.74974	122.95221	-1830.0909	-235.32855	136.58821	-1781.9535	-219.56502	106.40869	-1903.1428	-110.09595	39.769852	-1719.2944	-171.996	56.542412	-1691.8542	-177.67661	42.394203	-1655.3105
546	5.45	-233.70421	1358.1511	-1449.4813	-38.701477	1429.9452	-1530.1451	-405.90317	1405.4989	-1544.5028	-108.2478	984.23712	-1512.3198	-364.33875	999.22522	-1518.625	-294.88797	1015.0484	-1690.61	-164.97066	1019.2143	-1691.2609	-393.38831	533.16479	-1446.9375	-268.44992	523.65454	-1390.3206	-399.04959	456.87762	-1418.3781	-328.26959	317.57709	-1318.6475	-378.46747	104.78419	-1298.4146	-314.71182	159.96802	-1253.9222	-306.50406	57.801968	-1331.6829	-449.33936	108.92047	-1149.1917	-386.12778	150.89421	-1152.8088	-395.94461	166.65805	-1115.3668	-108.35749	524.06305	-1680.1223	-239.26326	510.58102	-1659.7408	-110.69602	467.11673	-1711.7446	-194.88557	311.16418	-1715.84	-157.32924	124.46924	-1828.7104	-235.02217	137.52759	-1780.4471	-219.01361	108.75792	-1901.9226	-109.99377	39.46542	-1719.2413	-171.7384	56.260044	-1691.4104	-177.64043	42.293827	-1655.3268
547	5.46	-234.48067	1355.1035	-1434.9884	-39.630913	1427.5132	-1515.802	-406.67868	1402.2485	-1529.9669	-108.55977	981.57025	-1498.0178	-364.85788	995.81927	-1503.4004	-296.14166	1011.745	-1675.8507	-166.13031	1016.54	-1677.0646	-390.78036	529.48059	-1433.7037	-264.20135	520.51288	-1379.1899	-396.6124	454.75919	-1402.0461	-326.52869	318.44946	-1297.6056	-377.02518	105.88474	-1269.4966	-313.3876	162.9604	-1227.6522	-305.65433	57.906872	-1301.3992	-446.63174	115.57752	-1119.7421	-383.97147	157.72957	-1125.5933	-393.49435	175.03278	-1088.691	-108.16127	523.59937	-1671.9827	-239.10017	509.62741	-1651.3616	-110.48609	467.15356	-1704.4952	-194.61714	311.13348	-1711.1304	-156.90201	126.45509	-1827.2928	-234.74156	138.54878	-1778.705	-218.52734	111.40985	-1900.5144	-109.79713	39.330376	-1719.057	-171.44528	55.96558	-1690.8895	-177.3143	42.324528	-1655.2255
548	5.47	-235.3287	1352.245	-1420.3059	-40.551514	1424.9764	-1501.246	-407.56754	1398.9302	-1515.4248	-108.75806	978.98627	-1483.6624	-365.35599	992.27234	-1488.1664	-297.49374	1008.4589	-1661.0004	-167.41148	1013.6307	-1662.4757	-389.1517	526.72321	-1418.2251	-260.86047	518.17755	-1367.3724	-394.62277	452.40466	-1385.4663	-324.77194	318.5668	-1277.6959	-375.19934	106.4956	-1243.6222	-311.52628	164.8924	-1204.1422	-303.98444	57.775127	-1274.7777	-442.79068	119.79646	-1093.1255	-380.68417	162.40202	-1101.1946	-389.78348	180.95374	-1064.8718	-107.9608	522.89771	-1662.8851	-238.47719	508.94229	-1643.1533	-110.23211	467.1322	-1696.4528	-194.35155	311.15662	-1705.9075	-156.51118	128.1946	-1825.4255	-234.46964	139.67819	-1776.6207	-218.06407	114.41621	-1898.7389	-109.61671	39.194347	-1718.8035	-171.21683	55.636627	-1690.2208	-177.20088	42.235691	-1655.1658
549	5.48	-236.26398	1349.4868	-1405.4841	-41.73859	1422.3438	-1486.6848	-408.50873	1395.7216	-1500.8879	-108.86277	976.3913	-1469.1959	-365.72495	988.73334	-1472.9468	-298.89075	1005.2514	-1646.064	-168.71748	1010.9114	-1648.0375	-388.2843	524.51782	-1401.1531	-258.38904	516.5741	-1353.9266	-392.99945	449.9559	-1368.4768	-322.93341	317.77679	-1258.9949	-372.63663	105.8792	-1221.0343	-309.06326	165.40173	-1183.6309	-301.72867	56.778919	-1252.0992	-437.93027	122.0073	-1069.4197	-376.30518	164.92485	-1079.9993	-384.8829	184.43932	-1044.1154	-107.62126	522.09686	-1653.1974	-238.0101	507.94321	-1633.4938	-109.92442	466.92477	-1687.7769	-193.91345	311.11945	-1700.1537	-156.28903	130.29166	-1823.2452	-234.16327	140.92737	-1774.2831	-217.58823	117.78822	-1896.6906	-109.44776	39.05571	-1718.486	-171.02223	55.287197	-1689.5	-177.30774	41.910442	-1655.3043
550	5.49	-237.33995	1346.8478	-1390.5784	-42.666233	1420.0531	-1471.4791	-409.55362	1392.6473	-1486.2366	-108.88773	973.83917	-1454.6406	-366.06686	985.31696	-1457.6783	-300.28293	1002.2286	-1631.0741	-170.12279	1008.1582	-1633.3135	-387.55493	522.14404	-1383.3236	-256.66537	515.40411	-1337.9888	-391.68222	447.53247	-1351.0336	-320.81219	316.10446	-1241.4347	-369.4931	104.07533	-1201.9005	-305.70801	164.28294	-1166.3154	-299.14932	54.584057	-1233.4766	-431.71677	122.01855	-1048.9985	-370.83124	165.12088	-1061.9091	-378.6972	185.32025	-1026.3495	-107.19911	521.12592	-1642.741	-237.38182	506.52725	-1622.8354	-109.43969	466.64566	-1678.3325	-193.45724	311.0603	-1693.8386	-155.62901	132.94429	-1820.8724	-233.81499	142.30371	-1771.6381	-217.08151	121.47289	-1894.2729	-109.33157	38.796829	-1718.1252	-170.77719	54.884464	-1688.6671	-177.28081	41.786591	-1655.2239
